# xmcd
#
# Track frame offsets:
#	180
#	13123
#	26448
#	35989
#	46541
#	56997
#	68728
#	81414
#	93900
#	107197
#	119495
#	136472
#	148915
#	162576
#	174150
#	193281
#
# Disc length: 2681 seconds
#
# Revision: 6
# Processed by: cddbd v1.5.2PL0 Copyright (c) Steve Scherf et al.
# Submitted via: audiograbber 1.83.01
#
DISCID=eb0a7710
DTITLE=Various Artist - A Collection Of Country Superstars CD 2
DYEAR=2007
DGENRE=Country
TTITLE0=Kenny Rogers - Ruby Don't Take Your Love To Town
TTITLE1=Lynn Anderson - Rose Garden
TTITLE2=Willie Nelson - Building Heartaches
TTITLE3=Dolly Parton - Honky Tonk Angels
TTITLE4=Waylon Jennings - Lorena
TTITLE5=Patsy Cline - Walking After Midnight
TTITLE6=Johnny Cash - Folsom Prison Blues
TTITLE7=Billy Jo Spears - Sunshine
TTITLE8=Alabama - Patches
TTITLE9=Kenny Rogers - Rueben James
TTITLE10=Lynn Anderson - Blue Bayou
TTITLE11=Johnny Paycheck - I'm Not Looking Back Anymore
TTITLE12=George Jones - A Good Year For The Roses
TTITLE13=Oak Ridge Boys - No One Cared As Much
TTITLE14=Alabama - I Want To Be With You Tonight
TTITLE15=Freddy Fender - Wasted Days And Wasted Nights
EXTD=
EXTT0=
EXTT1=
EXTT2=
EXTT3=
EXTT4=
EXTT5=
EXTT6=
EXTT7=
EXTT8=
EXTT9=
EXTT10=
EXTT11=
EXTT12=
EXTT13=
EXTT14=
EXTT15=
PLAYORDER=
